<svg width="14" height="18" viewBox="0 0 14 18" fill="none" xmlns="http://www.w3.org/2000/svg">
<path d="M13.7536 9.60545L13.0827 9.09V8.91L13.7373 8.39455C13.8682 8.29636 13.9009 8.11636 13.8191 7.97727L13.1236 6.76636C13.0664 6.66 12.9518 6.60273 12.8373 6.60273C12.7964 6.60273 12.7555 6.61091 12.7145 6.62727L11.9373 6.93818C11.8718 6.89727 11.8473 6.88091 11.7818 6.84818L11.6591 6.02182C11.6345 5.85 11.4955 5.72727 11.3318 5.72727H9.93273C9.76909 5.72727 9.63 5.85 9.60545 6.00545L9.49091 6.83182C9.46636 6.84818 9.43364 6.85636 9.40909 6.87273L9.33545 6.92182L8.55818 6.61091C8.51727 6.59455 8.47636 6.58636 8.43545 6.58636C8.32091 6.58636 8.21455 6.64364 8.14909 6.75L7.45364 7.96091C7.37182 8.1 7.40455 8.28 7.53545 8.37818L8.19 8.89364V9.08182L7.53545 9.59727C7.40455 9.69545 7.37182 9.87545 7.45364 10.0145L8.14909 11.2255C8.20636 11.3318 8.32091 11.3891 8.43545 11.3891C8.47636 11.3891 8.51727 11.3809 8.55818 11.3645L9.33545 11.0618C9.40091 11.1027 9.43364 11.1191 9.49909 11.1518L9.62182 11.9782C9.64636 12.1418 9.78545 12.2564 9.94909 12.2564H11.3482C11.5118 12.2564 11.6509 12.1336 11.6755 11.9782L11.7982 11.1518C11.8227 11.1355 11.8555 11.1273 11.88 11.1109L11.9536 11.0618L12.7309 11.3727C12.7718 11.3891 12.8127 11.3973 12.8536 11.3973C12.9682 11.3973 13.0745 11.34 13.14 11.2336L13.8355 10.0227C13.9173 9.88364 13.8845 9.70364 13.7536 9.60545ZM10.6364 10.2273C9.95727 10.2273 9.40909 9.67909 9.40909 9C9.40909 8.32091 9.95727 7.77273 10.6364 7.77273C11.3155 7.77273 11.8636 8.32091 11.8636 9C11.8636 9.67909 11.3155 10.2273 10.6364 10.2273ZM9.81818 13.0909H11.4545V16.3636C11.4545 17.2636 10.7182 18 9.81818 18H1.63636C0.736364 18 0 17.2636 0 16.3636V1.63636C0 0.736364 0.736364 0 1.63636 0H9.81818C10.7182 0 11.4545 0.736364 11.4545 1.63636V4.90909H9.81818V4.09091H1.63636V13.9091H9.81818V13.0909Z" fill="white"/>
</svg>
