<svg width="12" height="12" viewBox="0 0 12 12" fill="none" xmlns="http://www.w3.org/2000/svg">
<rect width="12" height="12" fill="#CFCFCF"/>
<g filter="url(#filter0_d_0_1)">
<g clip-path="url(#clip0_0_1)">
<rect x="-364" y="-498" width="1440" height="1024" rx="18" fill="white"/>
<g filter="url(#filter1_d_0_1)">
<rect x="-65" y="-79" width="255" height="178" rx="16" fill="#E9E9E9" shape-rendering="crispEdges"/>
<path d="M8.63988 5.59999C8.54488 5.59999 8.44986 5.56498 8.37486 5.48998C8.22986 5.34498 8.22986 5.10498 8.37486 4.95998L9.96986 3.36498L8.37486 1.76997C8.22986 1.62497 8.22986 1.38498 8.37486 1.23998C8.51986 1.09498 8.75986 1.09498 8.90486 1.23998L10.7649 3.09999C10.8349 3.16999 10.8749 3.26498 10.8749 3.36498C10.8749 3.46498 10.8349 3.55999 10.7649 3.62999L8.90486 5.48998C8.82986 5.55998 8.73488 5.59999 8.63988 5.59999Z" fill="#292D32"/>
<path d="M10.5 3.73999H1.5C1.295 3.73999 1.125 3.56999 1.125 3.36499C1.125 3.15999 1.295 2.98999 1.5 2.98999H10.5C10.705 2.98999 10.875 3.15999 10.875 3.36499C10.875 3.56999 10.705 3.73999 10.5 3.73999Z" fill="#292D32"/>
<path d="M3.35999 10.875C3.26499 10.875 3.17 10.84 3.095 10.765L1.23499 8.90498C1.16499 8.83498 1.125 8.74 1.125 8.64C1.125 8.54 1.16499 8.44499 1.23499 8.37499L3.095 6.515C3.24 6.37 3.48 6.37 3.625 6.515C3.77 6.66 3.77 6.9 3.625 7.045L2.03 8.64L3.625 10.235C3.77 10.38 3.77 10.62 3.625 10.765C3.555 10.84 3.45999 10.875 3.35999 10.875Z" fill="#292D32"/>
<path d="M10.5 9.01001H1.5C1.295 9.01001 1.125 8.84001 1.125 8.63501C1.125 8.43001 1.295 8.26001 1.5 8.26001H10.5C10.705 8.26001 10.875 8.43001 10.875 8.63501C10.875 8.84001 10.705 9.01001 10.5 9.01001Z" fill="#292D32"/>
</g>
</g>
</g>
<defs>
<filter id="filter0_d_0_1" x="-393" y="-503" width="1470" height="1054" filterUnits="userSpaceOnUse" color-interpolation-filters="sRGB">
<feFlood flood-opacity="0" result="BackgroundImageFix"/>
<feColorMatrix in="SourceAlpha" type="matrix" values="0 0 0 0 0 0 0 0 0 0 0 0 0 0 0 0 0 0 127 0" result="hardAlpha"/>
<feMorphology radius="7" operator="dilate" in="SourceAlpha" result="effect1_dropShadow_0_1"/>
<feOffset dx="-14" dy="10"/>
<feGaussianBlur stdDeviation="4"/>
<feComposite in2="hardAlpha" operator="out"/>
<feColorMatrix type="matrix" values="0 0 0 0 0 0 0 0 0 0 0 0 0 0 0 0 0 0 0.04 0"/>
<feBlend mode="normal" in2="BackgroundImageFix" result="effect1_dropShadow_0_1"/>
<feBlend mode="normal" in="SourceGraphic" in2="effect1_dropShadow_0_1" result="shape"/>
</filter>
<filter id="filter1_d_0_1" x="-69" y="-79" width="263" height="190" filterUnits="userSpaceOnUse" color-interpolation-filters="sRGB">
<feFlood flood-opacity="0" result="BackgroundImageFix"/>
<feColorMatrix in="SourceAlpha" type="matrix" values="0 0 0 0 0 0 0 0 0 0 0 0 0 0 0 0 0 0 127 0" result="hardAlpha"/>
<feOffset dy="8"/>
<feGaussianBlur stdDeviation="2"/>
<feComposite in2="hardAlpha" operator="out"/>
<feColorMatrix type="matrix" values="0 0 0 0 0 0 0 0 0 0 0 0 0 0 0 0 0 0 0.1 0"/>
<feBlend mode="normal" in2="BackgroundImageFix" result="effect1_dropShadow_0_1"/>
<feBlend mode="normal" in="SourceGraphic" in2="effect1_dropShadow_0_1" result="shape"/>
</filter>
<clipPath id="clip0_0_1">
<rect x="-364" y="-498" width="1440" height="1024" rx="18" fill="white"/>
</clipPath>
</defs>
</svg>
