<svg width="16" height="14" viewBox="0 0 16 14" fill="none" xmlns="http://www.w3.org/2000/svg">
<path d="M7.24997 4V7.75L10.7306 9.64L11.3612 8.68L8.47842 7.1125V4H7.24997ZM15.4396 5.5V0.25L13.2776 2.23C11.9508 1.0075 10.1082 0.25 8.06893 0.25C3.99867 0.25 0.698242 3.2725 0.698242 7C0.698242 10.7275 3.99867 13.75 8.06893 13.75C12.1392 13.75 15.4396 10.7275 15.4396 7H13.8017C13.8017 9.895 11.2301 12.25 8.06893 12.25C4.90773 12.25 2.33617 9.895 2.33617 7C2.33617 4.105 4.90773 1.75 8.06893 1.75C9.64954 1.75 11.0827 2.3425 12.1228 3.2875L9.70686 5.5H15.4396Z" fill="#000C8E"/>
</svg>
