<svg width="19" height="18" viewBox="0 0 19 18" fill="none" xmlns="http://www.w3.org/2000/svg">
<path d="M10.4211 7.82526V2.84211H13.2632V6.63158H15.1579V0.947368H10.4211V0H1.89474V15.1579H0V17.0526H8.77263C8.02421 15.9821 7.57895 14.6747 7.57895 13.2632C7.57895 11.0084 8.70632 9.02842 10.4211 7.82526ZM6.63158 7.57895H8.52632V9.47368H6.63158V7.57895ZM17.7063 12.6663L18.7863 11.7189L17.8389 10.08L16.4653 10.5442C16.1621 10.2884 15.8211 10.0895 15.4421 9.94737L15.1579 8.52632H13.2632L12.9789 9.93789C12.6 10.08 12.2589 10.2789 11.9558 10.5347L10.5821 10.0705L9.63474 11.7095L10.7147 12.6568C10.6389 13.1305 10.6389 13.3768 10.7147 13.8505L9.63474 14.7979L10.5821 16.4368L11.9558 15.9726C12.2589 16.2284 12.6 16.4274 12.9789 16.5695L13.2632 18H15.1579L15.4421 16.5884C15.8211 16.4463 16.1621 16.2474 16.4653 15.9916L17.8389 16.4558L18.7863 14.8168L17.7063 13.8695C17.7821 13.3863 17.7821 13.14 17.7063 12.6663ZM14.2105 15.1579C13.1684 15.1579 12.3158 14.3053 12.3158 13.2632C12.3158 12.2211 13.1684 11.3684 14.2105 11.3684C15.2526 11.3684 16.1053 12.2211 16.1053 13.2632C16.1053 14.3053 15.2526 15.1579 14.2105 15.1579Z" fill="white"/>
</svg>
